<?xml version="1.0" encoding="UTF-8"?>
<svg xmlns="http://www.w3.org/2000/svg" xmlns:xlink="http://www.w3.org/1999/xlink" width="30px" height="31px" viewBox="0 0 30 31" version="1.1">
<defs>
<clipPath id="clip1">
  <path d="M 0.484375 0 L 29.515625 0 L 29.515625 30 L 0.484375 30 Z M 0.484375 0 "/>
</clipPath>
</defs>
<g id="surface1">
<path style="fill:none;stroke-width:176.38;stroke-linecap:round;stroke-linejoin:round;stroke:rgb(100%,100%,100%);stroke-opacity:1;stroke-miterlimit:4;" d="M 3630.254098 3630.196445 L 5513.748041 5514.379514 " transform="matrix(0.00658268,0,0,0.0068021,-15.096019,-16.099218)"/>
<path style="fill:none;stroke-width:176.38;stroke-linecap:round;stroke-linejoin:round;stroke:rgb(100%,100%,100%);stroke-opacity:1;stroke-miterlimit:4;" d="M 5513.748041 3630.196445 L 3630.254098 5514.379514 " transform="matrix(0.00658268,0,0,0.0068021,-15.096019,-16.099218)"/>
<g clip-path="url(#clip1)" clip-rule="nonzero">
<path style="fill:none;stroke-width:176.38;stroke-linecap:round;stroke-linejoin:round;stroke:rgb(100%,100%,100%);stroke-opacity:1;stroke-miterlimit:4;" d="M 6688.706456 4572.000844 C 6688.706456 4710.97442 6675.651363 4848.225183 6648.354349 4984.901675 C 6621.057335 5121.578167 6581.298641 5253.660491 6527.891441 5381.722919 C 6474.48424 5510.933888 6409.208773 5632.105064 6332.065038 5748.107801 C 6254.921304 5863.536267 6167.09613 5970.350668 6069.182928 6069.125276 C 5970.676314 6166.751342 5863.861912 6254.614801 5748.146311 6332.141382 C 5632.430709 6409.667964 5510.780975 6474.560584 5382.01028 6527.967785 C 5253.832998 6581.374985 5121.501823 6620.999683 4985.016755 6647.990419 C 4848.531686 6675.555425 4710.859791 6689.337929 4572.001069 6689.337929 C 4433.142348 6689.337929 4295.470453 6675.555425 4158.985384 6647.990419 C 4022.500316 6620.999683 3890.169141 6581.374985 3761.991859 6527.967785 C 3633.221164 6474.560584 3511.571429 6409.667964 3395.855828 6332.141382 C 3280.140227 6254.614801 3173.325825 6166.751342 3074.819211 6069.125276 C 2976.906009 5970.350668 2889.080835 5863.536267 2811.937101 5748.107801 C 2734.793366 5632.105064 2669.517899 5510.933888 2616.110698 5381.722919 C 2562.703498 5253.660491 2522.944804 5121.578167 2495.64779 4984.901675 C 2468.350776 4848.225183 2455.295683 4710.97442 2455.295683 4572.000844 C 2455.295683 4433.027268 2468.350776 4295.202234 2495.64779 4159.100013 C 2522.944804 4022.423521 2562.703498 3890.341197 2616.110698 3761.704498 C 2669.517899 3633.0678 2734.793366 3511.322353 2811.937101 3395.893887 C 2889.080835 3279.89115 2976.906009 3173.076749 3074.819211 3075.450683 C 3173.325825 2976.676076 3280.140227 2888.812616 3395.855828 2811.860306 C 3511.571429 2734.907995 3633.221164 2669.441104 3761.991859 2616.033903 C 3890.169141 2563.200974 4022.500316 2523.002005 4158.985384 2495.436999 C 4295.470453 2468.446263 4433.142348 2455.23803 4572.001069 2455.23803 C 4710.859791 2455.23803 4848.531686 2468.446263 4985.016755 2495.436999 C 5121.501823 2523.002005 5253.832998 2563.200974 5382.01028 2616.033903 C 5510.780975 2669.441104 5632.430709 2734.907995 5748.146311 2811.860306 C 5863.861912 2888.812616 5970.676314 2976.676076 6069.182928 3075.450683 C 6167.09613 3173.076749 6254.921304 3279.89115 6332.065038 3395.893887 C 6409.208773 3511.322353 6474.48424 3633.0678 6527.891441 3761.704498 C 6581.298641 3890.341197 6621.057335 4022.423521 6648.354349 4159.100013 C 6675.651363 4295.202234 6688.706456 4433.027268 6688.706456 4572.000844 Z M 6688.706456 4572.000844 " transform="matrix(0.00658268,0,0,0.0068021,-15.096019,-16.099218)"/>
</g>
</g>
</svg>
