<svg xmlns="http://www.w3.org/2000/svg" xmlns:xlink="http://www.w3.org/1999/xlink" width="78" zoomAndPan="magnify" viewBox="0 0 58.5 30.000001" height="40" preserveAspectRatio="xMidYMid meet" version="1.0"><defs><clipPath id="18044ac9fc"><path d="M 17.339844 0 L 40.566406 0 L 40.566406 29.03125 L 17.339844 29.03125 Z M 17.339844 0 " clip-rule="nonzero"/></clipPath><clipPath id="f981cfe2e1"><path d="M 27 20 L 40.566406 20 L 40.566406 29 L 27 29 Z M 27 20 " clip-rule="nonzero"/></clipPath></defs><g clip-path="url(#18044ac9fc)"><path fill="#ff4a17" d="M 31.90625 0.0078125 C 31.90625 0.0078125 31.90625 0.0078125 17.355469 0.0078125 C 17.355469 0.0078125 17.355469 0.0078125 23.222656 5.800781 C 23.222656 5.800781 23.222656 5.800781 31.898438 5.800781 C 32.683594 5.800781 33.386719 6.109375 33.933594 6.65625 C 34.476562 7.203125 34.789062 7.90625 34.789062 8.6875 C 34.789062 10.328125 33.457031 11.582031 31.894531 11.582031 C 31.894531 11.582031 31.894531 11.582031 17.339844 11.582031 C 17.339844 11.582031 17.339844 11.582031 17.339844 23.160156 C 17.339844 23.160156 17.339844 23.160156 23.207031 29.023438 C 23.207031 29.023438 23.207031 29.023438 23.207031 17.367188 C 23.207031 17.367188 23.207031 17.367188 31.886719 17.367188 C 36.65625 17.367188 40.566406 13.460938 40.566406 8.6875 C 40.585938 3.914062 36.679688 0.0078125 31.90625 0.0078125 Z M 31.90625 0.0078125 " fill-opacity="1" fill-rule="nonzero"/></g><g clip-path="url(#f981cfe2e1)"><path fill="#ff4a17" d="M 27.683594 20.128906 L 33.785156 28.574219 L 40.667969 28.574219 L 34.566406 20.128906 Z M 27.683594 20.128906 " fill-opacity="1" fill-rule="nonzero"/></g></svg>