<svg xmlns="http://www.w3.org/2000/svg" xmlns:xlink="http://www.w3.org/1999/xlink" width="500" zoomAndPan="magnify" viewBox="0 0 375 374.999991" height="500" preserveAspectRatio="xMidYMid meet" version="1.0"><defs><clipPath id="2ab03e4f9a"><path d="M 5.433594 3.425781 L 369.933594 3.425781 L 369.933594 371.675781 L 5.433594 371.675781 Z M 5.433594 3.425781 " clip-rule="nonzero"/></clipPath></defs><g clip-path="url(#2ab03e4f9a)"><path fill="#ff4a17" d="M 187.183594 3.445312 C 91.375 3.445312 12.886719 77.992188 5.433594 172.71875 L 103.183594 213.515625 C 111.464844 207.796875 121.476562 204.453125 132.238281 204.453125 C 133.207031 204.453125 134.167969 204.480469 135.113281 204.539062 L 178.59375 140.945312 L 178.59375 140.050781 C 178.59375 101.785156 209.445312 70.644531 247.363281 70.644531 C 285.285156 70.644531 316.136719 101.785156 316.136719 140.050781 C 316.136719 178.308594 285.285156 209.472656 247.363281 209.472656 C 246.839844 209.472656 246.324219 209.460938 245.800781 209.445312 L 183.800781 254.078125 C 183.839844 254.90625 183.855469 255.730469 183.855469 256.539062 C 183.855469 285.273438 160.699219 308.65625 132.238281 308.65625 C 107.253906 308.65625 86.347656 290.648438 81.625 266.808594 L 11.707031 237.636719 C 33.359375 314.898438 103.695312 371.539062 187.183594 371.539062 C 287.917969 371.539062 369.558594 289.125 369.558594 187.484375 C 369.558594 85.839844 287.917969 3.445312 187.183594 3.445312 Z M 119.722656 282.699219 L 97.324219 273.351562 C 101.289062 281.703125 108.164062 288.6875 117.285156 292.511719 C 136.992188 300.804688 159.71875 291.375 167.941406 271.476562 C 171.90625 261.832031 171.9375 251.207031 167.996094 241.546875 C 164.070312 231.890625 156.632812 224.351562 147.085938 220.339844 C 137.597656 216.371094 127.441406 216.515625 118.515625 219.914062 L 141.664062 229.574219 C 156.207031 235.6875 163.074219 252.527344 157.015625 267.207031 C 150.972656 281.871094 134.265625 288.8125 119.722656 282.699219 Z M 293.195312 140.050781 C 293.195312 114.554688 272.628906 93.792969 247.367188 93.792969 C 222.09375 93.792969 201.539062 114.554688 201.539062 140.050781 C 201.539062 165.550781 222.09375 186.285156 247.367188 186.285156 C 272.628906 186.285156 293.195312 165.550781 293.195312 140.050781 Z M 213.015625 139.96875 C 213.015625 120.785156 228.4375 105.234375 247.4375 105.234375 C 266.457031 105.234375 281.875 120.785156 281.875 139.96875 C 281.875 159.164062 266.457031 174.710938 247.4375 174.710938 C 228.4375 174.710938 213.015625 159.164062 213.015625 139.96875 Z M 213.015625 139.96875 " fill-opacity="1" fill-rule="nonzero"/></g></svg>